G75*
G70*
%OFA0B0*%
%FSLAX24Y24*%
%IPPOS*%
%LPD*%
%AMOC8*
5,1,8,0,0,1.08239X$1,22.5*
%
%ADD10R,0.0440X0.0780*%
%ADD11C,0.1130*%
%ADD12R,0.0552X0.0552*%
%ADD13R,0.0513X0.0474*%
%ADD14R,0.0474X0.0513*%
%ADD15R,0.0330X0.0580*%
%ADD16R,0.0218X0.0710*%
%ADD17OC8,0.0740*%
%ADD18C,0.1340*%
%ADD19OC8,0.0780*%
%ADD20R,0.0380X0.0680*%
%ADD21C,0.0680*%
D10*
X005900Y013200D03*
X006400Y013200D03*
X006900Y013200D03*
X007400Y013200D03*
X007400Y015400D03*
X006900Y015400D03*
X006400Y015400D03*
X005900Y015400D03*
D11*
X006175Y011600D02*
X005125Y011600D01*
X005125Y009100D02*
X006175Y009100D01*
X006270Y005150D02*
X006270Y004100D01*
X003570Y004100D02*
X003570Y005150D01*
D12*
X001450Y003987D03*
X001450Y004813D03*
X019950Y004813D03*
X019950Y003987D03*
D13*
X019950Y005565D03*
X019950Y006235D03*
X008150Y018215D03*
X008150Y018885D03*
X001450Y006235D03*
X001450Y005565D03*
D14*
X008450Y013515D03*
X008450Y014185D03*
D15*
X003850Y014100D03*
X003450Y014100D03*
X003450Y015100D03*
X003850Y015100D03*
X003850Y017100D03*
X003450Y017100D03*
X003450Y018100D03*
X003850Y018100D03*
D16*
X005882Y018802D03*
X006138Y018802D03*
X006394Y018802D03*
X006650Y018802D03*
X006906Y018802D03*
X007162Y018802D03*
X007418Y018802D03*
X007418Y016598D03*
X007162Y016598D03*
X006906Y016598D03*
X006650Y016598D03*
X006394Y016598D03*
X006138Y016598D03*
X005882Y016598D03*
D17*
X001150Y016100D03*
X001150Y015100D03*
X001150Y014100D03*
X001150Y013100D03*
X001150Y012100D03*
X001150Y017100D03*
X001150Y018100D03*
X001150Y019100D03*
X001150Y020700D03*
X001150Y021700D03*
X001150Y022700D03*
X001150Y023700D03*
X001150Y024700D03*
X001150Y025700D03*
X001150Y026700D03*
X001150Y027700D03*
X020150Y027700D03*
X020150Y026700D03*
X020150Y025700D03*
X020150Y024700D03*
X020150Y023700D03*
X020150Y022700D03*
X020150Y020700D03*
X020150Y019700D03*
X020150Y018700D03*
X020150Y017700D03*
X020150Y016700D03*
X020150Y015700D03*
D18*
X020150Y008200D03*
X007150Y028700D03*
X001150Y008700D03*
D19*
X002650Y012100D03*
X002650Y013100D03*
X002650Y014100D03*
X002650Y015100D03*
X002650Y016100D03*
X002650Y017100D03*
X002650Y018100D03*
X002650Y019100D03*
X002650Y020700D03*
X002650Y021700D03*
X002650Y022700D03*
X002650Y023700D03*
X002650Y024700D03*
X002650Y025700D03*
X002650Y026700D03*
X002650Y027700D03*
X018650Y027700D03*
X018650Y026700D03*
X018650Y025700D03*
X018650Y024700D03*
X018650Y023700D03*
X018650Y022700D03*
X018650Y020700D03*
X018650Y019700D03*
X018650Y018700D03*
X018650Y017700D03*
X018650Y016700D03*
X018650Y015700D03*
D20*
X018900Y014700D03*
X017400Y014700D03*
X017400Y012700D03*
X018900Y012700D03*
D21*
X017650Y011700D03*
X017650Y010700D03*
X017650Y009700D03*
X017650Y008700D03*
X017650Y007700D03*
X017650Y006700D03*
X017650Y005700D03*
X017650Y004700D03*
X017650Y003700D03*
X016650Y003700D03*
X016650Y004700D03*
X016650Y005700D03*
X016650Y006700D03*
X016650Y007700D03*
X016650Y008700D03*
X016650Y009700D03*
X016650Y010700D03*
X016650Y011700D03*
X016650Y012700D03*
X016650Y013700D03*
X016650Y014700D03*
X016650Y015700D03*
X016650Y016700D03*
X016650Y017700D03*
X016650Y018700D03*
X016650Y019700D03*
X016650Y020700D03*
X016650Y021700D03*
X016650Y022700D03*
X016650Y023700D03*
X016650Y024700D03*
X016650Y025700D03*
X016650Y026700D03*
X016650Y027700D03*
X016650Y028700D03*
X015650Y028700D03*
X015650Y027700D03*
X015650Y026700D03*
X015650Y025700D03*
X015650Y024700D03*
X015650Y023700D03*
X015650Y022700D03*
X015650Y021700D03*
X015650Y020700D03*
X015650Y019700D03*
X015650Y018700D03*
X015650Y017700D03*
X015650Y016700D03*
X015650Y015700D03*
X015650Y014700D03*
X015650Y013700D03*
X015650Y012700D03*
X015650Y011700D03*
X015650Y010700D03*
X015650Y009700D03*
X015650Y008700D03*
X015650Y007700D03*
X015650Y006700D03*
X015650Y005700D03*
X015650Y004700D03*
X015650Y003700D03*
X014650Y003700D03*
X014650Y004700D03*
X014650Y005700D03*
X014650Y006700D03*
X014650Y007700D03*
X014650Y008700D03*
X014650Y009700D03*
X014650Y010700D03*
X014650Y011700D03*
X014650Y012700D03*
X014650Y013700D03*
X014650Y014700D03*
X014650Y015700D03*
X014650Y016700D03*
X014650Y017700D03*
X014650Y018700D03*
X014650Y019700D03*
X014650Y020700D03*
X014650Y021700D03*
X014650Y022700D03*
X014650Y023700D03*
X014650Y024700D03*
X014650Y025700D03*
X014650Y026700D03*
X014650Y027700D03*
X014650Y028700D03*
X013650Y028700D03*
X013650Y027700D03*
X013650Y026700D03*
X013650Y025700D03*
X013650Y024700D03*
X013650Y023700D03*
X013650Y022700D03*
X013650Y021700D03*
X013650Y020700D03*
X013650Y019700D03*
X013650Y018700D03*
X013650Y017700D03*
X013650Y016700D03*
X013650Y015700D03*
X013650Y014700D03*
X013650Y013700D03*
X013650Y012700D03*
X013650Y011700D03*
X013650Y010700D03*
X013650Y009700D03*
X013650Y008700D03*
X013650Y007700D03*
X013650Y006700D03*
X013650Y005700D03*
X013650Y004700D03*
X013650Y003700D03*
X012650Y003700D03*
X012650Y004700D03*
X012650Y005700D03*
X012650Y006700D03*
X012650Y007700D03*
X012650Y008700D03*
X012650Y009700D03*
X012650Y010700D03*
X012650Y011700D03*
X012650Y012700D03*
X012650Y013700D03*
X012650Y014700D03*
X012650Y015700D03*
X012650Y016700D03*
X012650Y017700D03*
X012650Y018700D03*
X012650Y019700D03*
X012650Y020700D03*
X012650Y021700D03*
X012650Y022700D03*
X012650Y023700D03*
X012650Y024700D03*
X012650Y025700D03*
X012650Y026700D03*
X012650Y027700D03*
X012650Y028700D03*
X011650Y028700D03*
X011650Y027700D03*
X011650Y026700D03*
X011650Y025700D03*
X011650Y024700D03*
X011650Y023700D03*
X011650Y022700D03*
X011650Y021700D03*
X011650Y020700D03*
X011650Y019700D03*
X011650Y018700D03*
X011650Y017700D03*
X011650Y016700D03*
X011650Y015700D03*
X011650Y014700D03*
X011650Y013700D03*
X011650Y012700D03*
X011650Y011700D03*
X011650Y010700D03*
X011650Y009700D03*
X011650Y008700D03*
X011650Y007700D03*
X011650Y006700D03*
X011650Y005700D03*
X011650Y004700D03*
X011650Y003700D03*
X010650Y003700D03*
X010650Y004700D03*
X010650Y005700D03*
X010650Y006700D03*
X010650Y007700D03*
X010650Y008700D03*
X010650Y009700D03*
X010650Y010700D03*
X010650Y011700D03*
X010650Y012700D03*
X010650Y013700D03*
X010650Y014700D03*
X010650Y015700D03*
X010650Y016700D03*
X010650Y017700D03*
X010650Y018700D03*
X010650Y019700D03*
X010650Y020700D03*
X010650Y021700D03*
X010650Y022700D03*
X010650Y023700D03*
X010650Y024700D03*
X010650Y025700D03*
X010650Y026700D03*
X010650Y027700D03*
X010650Y028700D03*
X009650Y028700D03*
X009650Y027700D03*
X009650Y026700D03*
X009650Y025700D03*
X009650Y024700D03*
X009650Y023700D03*
X009650Y022700D03*
X009650Y021700D03*
X009650Y020700D03*
X009650Y019700D03*
X009650Y018700D03*
X009650Y017700D03*
X009650Y016700D03*
X009650Y015700D03*
X009650Y014700D03*
X009650Y013700D03*
X009650Y012700D03*
X009650Y011700D03*
X009650Y010700D03*
X009650Y009700D03*
X009650Y008700D03*
X009650Y007700D03*
X009650Y006700D03*
X009650Y005700D03*
X009650Y004700D03*
X009650Y003700D03*
X008650Y003700D03*
X008650Y004700D03*
X008650Y005700D03*
X008650Y006700D03*
X008650Y007700D03*
X008650Y008700D03*
X008650Y009700D03*
X008650Y010700D03*
X008650Y011700D03*
X007650Y011700D03*
X007650Y010700D03*
X007650Y009700D03*
X007650Y008700D03*
X007650Y007700D03*
X007650Y006700D03*
X007650Y005700D03*
X007650Y004700D03*
X007650Y003700D03*
X017650Y015700D03*
X017650Y016700D03*
X017650Y017700D03*
X017650Y018700D03*
X017650Y019700D03*
X017650Y020700D03*
X017650Y021700D03*
X017650Y022700D03*
X017650Y023700D03*
X017650Y024700D03*
X017650Y025700D03*
X017650Y026700D03*
X017650Y027700D03*
X017650Y028700D03*
X008650Y028700D03*
X008650Y027700D03*
X008650Y026700D03*
X008650Y025700D03*
X008650Y024700D03*
X008650Y023700D03*
X008650Y022700D03*
X008650Y021700D03*
X007650Y021700D03*
X007650Y020700D03*
X006650Y020700D03*
X006650Y021700D03*
X006650Y022700D03*
X006650Y023700D03*
X006650Y024700D03*
X006650Y025700D03*
X006650Y026700D03*
X005650Y026700D03*
X005650Y025700D03*
X005650Y024700D03*
X005650Y023700D03*
X005650Y022700D03*
X005650Y021700D03*
X005650Y020700D03*
X004650Y020700D03*
X004650Y021700D03*
X004650Y022700D03*
X004650Y023700D03*
X004650Y024700D03*
X004650Y025700D03*
X004650Y026700D03*
X004650Y027700D03*
X003650Y027700D03*
X003650Y026700D03*
X003650Y025700D03*
X003650Y024700D03*
X003650Y023700D03*
X003650Y022700D03*
X003650Y021700D03*
X007650Y022700D03*
X007650Y023700D03*
X007650Y024700D03*
X007650Y025700D03*
X007650Y026700D03*
X005650Y027700D03*
M02*
