%
M48
M72
T01C0.0150
T02C0.0394
T03C0.0400
T04C0.0700
T05C0.1260
%
T01
X2100Y4000
X7050Y17350
X5400Y18200
X19250Y3950
T02
X20150Y15700
X20150Y16700
X20150Y17700
X20150Y18700
X20150Y19700
X20150Y20700
X20150Y22700
X20150Y23700
X20150Y24700
X20150Y25700
X20150Y26700
X20150Y27700
X1150Y27700
X1150Y26700
X1150Y25700
X1150Y24700
X1150Y23700
X1150Y22700
X1150Y21700
X1150Y20700
X1150Y19100
X1150Y18100
X1150Y17100
X1150Y16100
X1150Y15100
X1150Y14100
X1150Y13100
X1150Y12100
T03
X2650Y12100
X2650Y13100
X2650Y14100
X2650Y15100
X2650Y16100
X2650Y17100
X2650Y18100
X2650Y19100
X2650Y20700
X2650Y21700
X2650Y22700
X2650Y23700
X2650Y24700
X2650Y25700
X2650Y26700
X2650Y27700
X3650Y27700
X3650Y26700
X3650Y25700
X3650Y24700
X3650Y23700
X3650Y22700
X3650Y21700
X4650Y21700
X4650Y20700
X5650Y20700
X5650Y21700
X5650Y22700
X5650Y23700
X5650Y24700
X5650Y25700
X5650Y26700
X5650Y27700
X6650Y26700
X6650Y25700
X6650Y24700
X6650Y23700
X6650Y22700
X6650Y21700
X6650Y20700
X7650Y20700
X7650Y21700
X7650Y22700
X7650Y23700
X7650Y24700
X7650Y25700
X7650Y26700
X8650Y26700
X8650Y25700
X8650Y24700
X8650Y23700
X8650Y22700
X8650Y21700
X9650Y21700
X9650Y20700
X9650Y19700
X9650Y18700
X9650Y17700
X9650Y16700
X9650Y15700
X9650Y14700
X9650Y13700
X9650Y12700
X9650Y11700
X9650Y10700
X9650Y9700
X9650Y8700
X9650Y7700
X9650Y6700
X9650Y5700
X9650Y4700
X9650Y3700
X8650Y3700
X8650Y4700
X8650Y5700
X8650Y6700
X8650Y7700
X8650Y8700
X8650Y9700
X8650Y10700
X8650Y11700
X7650Y11700
X7650Y10700
X7650Y9700
X7650Y8700
X7650Y7700
X7650Y6700
X7650Y5700
X7650Y4700
X7650Y3700
X10650Y3700
X10650Y4700
X10650Y5700
X10650Y6700
X10650Y7700
X10650Y8700
X10650Y9700
X10650Y10700
X10650Y11700
X10650Y12700
X10650Y13700
X10650Y14700
X10650Y15700
X10650Y16700
X10650Y17700
X10650Y18700
X10650Y19700
X10650Y20700
X10650Y21700
X10650Y22700
X10650Y23700
X10650Y24700
X10650Y25700
X10650Y26700
X10650Y27700
X10650Y28700
X11650Y28700
X11650Y27700
X11650Y26700
X11650Y25700
X11650Y24700
X11650Y23700
X11650Y22700
X11650Y21700
X11650Y20700
X11650Y19700
X11650Y18700
X11650Y17700
X11650Y16700
X11650Y15700
X11650Y14700
X11650Y13700
X11650Y12700
X11650Y11700
X11650Y10700
X11650Y9700
X11650Y8700
X11650Y7700
X11650Y6700
X11650Y5700
X11650Y4700
X11650Y3700
X12650Y3700
X12650Y4700
X12650Y5700
X12650Y6700
X12650Y7700
X12650Y8700
X12650Y9700
X12650Y10700
X12650Y11700
X12650Y12700
X12650Y13700
X12650Y14700
X12650Y15700
X12650Y16700
X12650Y17700
X12650Y18700
X12650Y19700
X12650Y20700
X12650Y21700
X12650Y22700
X12650Y23700
X12650Y24700
X12650Y25700
X12650Y26700
X12650Y27700
X12650Y28700
X13650Y28700
X13650Y27700
X13650Y26700
X13650Y25700
X13650Y24700
X13650Y23700
X13650Y22700
X13650Y21700
X13650Y20700
X13650Y19700
X13650Y18700
X13650Y17700
X13650Y16700
X13650Y15700
X13650Y14700
X13650Y13700
X13650Y12700
X13650Y11700
X13650Y10700
X13650Y9700
X13650Y8700
X13650Y7700
X13650Y6700
X13650Y5700
X13650Y4700
X13650Y3700
X14650Y3700
X14650Y4700
X14650Y5700
X14650Y6700
X14650Y7700
X14650Y8700
X14650Y9700
X14650Y10700
X14650Y11700
X14650Y12700
X14650Y13700
X14650Y14700
X14650Y15700
X14650Y16700
X14650Y17700
X14650Y18700
X14650Y19700
X14650Y20700
X14650Y21700
X14650Y22700
X14650Y23700
X14650Y24700
X14650Y25700
X14650Y26700
X14650Y27700
X14650Y28700
X15650Y28700
X15650Y27700
X15650Y26700
X15650Y25700
X15650Y24700
X15650Y23700
X15650Y22700
X15650Y21700
X15650Y20700
X15650Y19700
X15650Y18700
X15650Y17700
X15650Y16700
X15650Y15700
X15650Y14700
X15650Y13700
X15650Y12700
X15650Y11700
X15650Y10700
X15650Y9700
X15650Y8700
X15650Y7700
X15650Y6700
X15650Y5700
X15650Y4700
X15650Y3700
X16650Y3700
X16650Y4700
X16650Y5700
X16650Y6700
X16650Y7700
X16650Y8700
X16650Y9700
X16650Y10700
X16650Y11700
X16650Y12700
X16650Y13700
X16650Y14700
X16650Y15700
X16650Y16700
X16650Y17700
X16650Y18700
X16650Y19700
X16650Y20700
X16650Y21700
X16650Y22700
X16650Y23700
X16650Y24700
X16650Y25700
X16650Y26700
X16650Y27700
X16650Y28700
X17650Y28700
X17650Y27700
X17650Y26700
X17650Y25700
X17650Y24700
X17650Y23700
X17650Y22700
X17650Y21700
X17650Y20700
X17650Y19700
X17650Y18700
X17650Y17700
X17650Y16700
X17650Y15700
X18650Y15700
X18650Y16700
X18650Y17700
X18650Y18700
X18650Y19700
X18650Y20700
X18650Y22700
X18650Y23700
X18650Y24700
X18650Y25700
X18650Y26700
X18650Y27700
X9650Y27700
X9650Y26700
X9650Y25700
X9650Y24700
X9650Y23700
X9650Y22700
X8650Y27700
X8650Y28700
X9650Y28700
X4650Y27700
X4650Y26700
X4650Y25700
X4650Y24700
X4650Y23700
X4650Y22700
X17650Y11700
X17650Y10700
X17650Y9700
X17650Y8700
X17650Y7700
X17650Y6700
X17650Y5700
X17650Y4700
X17650Y3700
T04
X6270Y4100
X3570Y4100
X5650Y9100
X5650Y11600
T05
X1150Y8700
X7150Y28700
X20150Y8200
M30
